<svg xmlns="http://www.w3.org/2000/svg" viewBox="16 10 88 72" fill="none" stroke="currentColor" stroke-width="1.5" stroke-linecap="round" stroke-linejoin="round">
  <!-- Contact — la parole portée loin : le tambour parleur (tama), dont les
       ondes portent la couleur. -->
  <ellipse cx="60" cy="20" rx="16" ry="4.5" stroke-width="2"/>
  <ellipse cx="60" cy="68" rx="16" ry="4.5" stroke-width="2"/>
  <path d="M44 20 C51 34 51 54 44 68 M76 20 C69 34 69 54 76 68"/>
  <path d="M46 22.7 L46 66.7 M49.5 24 L49.5 68 M53 25 L53 69 M56.5 25.5 L56.5 69.5 M60 25.5 L60 69.5 M63.5 25 L63.5 69 M67 24 L67 68 M70.5 22.7 L70.5 66.7" stroke-width="1" opacity=".6"/>
  <path d="M44 44 H76" stroke-width="1.2" opacity=".6"/>
  <path d="M50 34 L54 38 L50 42 M70 34 L66 38 L70 42 M50 46 L54 50 L50 54 M70 46 L66 50 L70 54" stroke-width="1.2" opacity=".75"/>
  <path d="M78 76 C88 70 94 62 96 52" stroke-width="2"/>
  <g style="color: var(--color-primary-500)" stroke-width="1.8">
    <path d="M88 22 C92 26 92 32 88 36"/>
    <path d="M94 16 C101 23 101 35 94 42"/>
    <path d="M32 22 C28 26 28 32 32 36"/>
    <path d="M26 16 C19 23 19 35 26 42"/>
  </g>
</svg>
